<svg aria-hidden="true" style="position: absolute; width: 0; height: 0; overflow: hidden;" version="1.1" xmlns="http://www.w3.org/2000/svg" xmlns:xlink="http://www.w3.org/1999/xlink">
<defs>
<symbol id="icon-bird-right" viewBox="0 0 18 32">
<path d="M12.362 15.962l-10.933-10.933 2.917-2.955 13.888 13.888-13.888 13.888-2.917-2.955 10.933-10.934z"></path>
</symbol>
<symbol id="icon-delete" viewBox="0 0 28 32">
<path d="M1.918 32v-27.184h-1.918v-3.192h8.558v-1.625h11.315v1.62h8.572v3.196h-1.919v27.184h-24.607zM5.044 28.804h18.357v-23.987h-18.357v23.987zM9.234 25.228h2.923v-16.89h-2.923v16.89zM16.288 25.228h2.93v-16.89h-2.93v16.89z"></path>
</symbol>
<symbol id="icon-edit" viewBox="0 0 32 32">
<path d="M0.941 31.059v-25.348h16.163l-2.549 2.55h-11.064v20.254h20.294v-11.126l2.555-2.55v16.219h-25.398zM19.841 6.135l1.742 1.703-9.802 9.728v2.674h2.645l9.817-9.799 1.699 1.692-10.519 10.516h-6.056v-6.044l10.475-10.472zM25.941 12.135l-6.1-6 5.204-5.194 6.014 6.056-5.118 5.138z"></path>
</symbol>
<symbol id="icon-ellipsis" viewBox="0 0 120 32">
<path d="M24 16c0 6.627-5.373 12-12 12s-12-5.373-12-12c0-6.627 5.373-12 12-12s12 5.373 12 12z"></path>
<path d="M72 16c0 6.627-5.373 12-12 12s-12-5.373-12-12c0-6.627 5.373-12 12-12s12 5.373 12 12z"></path>
<path d="M120 16c0 6.627-5.373 12-12 12s-12-5.373-12-12c0-6.627 5.373-12 12-12s12 5.373 12 12z"></path>
</symbol>
<symbol id="icon-check" viewBox="0 0 41 32">
<path d="M14.743 30.323l-13.776-13.776 3.424-3.424 10.353 10.385 21.978-21.978 3.424 3.391-25.401 25.401z"></path>
</symbol>
<symbol id="icon-arrow-left" viewBox="0 0 32 32">
<path d="M13.391 24.079l-8.087-8.079 8.109-8.101 1.701 1.691-5.193 5.198h16.798v2.414h-16.798l5.17 5.17-1.701 1.707z"></path>
</symbol>
<symbol id="icon-bird-down-16px" viewBox="0 0 32 32">
<path d="M16 21.034l-7.756-7.756 1.655-1.655 6.101 6.123 6.101-6.101 1.655 1.655-7.756 7.735z"></path>
</symbol>
<symbol id="icon-close" viewBox="0 0 29 32">
<path d="M14.293 19.18l-10.753 10.753-3.208-3.208 10.754-10.754-10.769-10.769 3.209-3.209 10.769 10.769 10.722-10.722 3.208 3.208-10.722 10.722 10.708 10.708-3.209 3.209-10.708-10.708z"></path>
</symbol>
<symbol id="icon-search" viewBox="0 0 33 32">
<path d="M26.945 28.033l-8.605-8.601c-0.651 0.552-1.413 0.977-2.288 1.274s-1.798 0.445-2.772 0.445c-2.409 0-4.448-0.835-6.118-2.505s-2.505-3.693-2.505-6.067c0-2.375 0.833-4.398 2.499-6.068s3.692-2.506 6.079-2.506c2.386 0 4.411 0.836 6.074 2.507s2.495 3.696 2.495 6.074c0 0.954-0.149 1.865-0.448 2.733s-0.73 1.665-1.293 2.392l8.631 8.578-1.749 1.746zM13.254 18.737c1.71 0 3.16-0.599 4.35-1.797s1.785-2.653 1.785-4.364c0-1.712-0.595-3.166-1.786-4.363s-2.643-1.795-4.355-1.795c-1.725 0-3.186 0.599-4.383 1.796s-1.796 2.652-1.796 4.364c0 1.712 0.599 3.166 1.796 4.363s2.66 1.795 4.388 1.795z"></path>
</symbol>
<symbol id="icon-bird-down-24px" viewBox="0 0 33 32">
<path d="M16.667 20.616l-8.079-8.079 1.724-1.724 6.356 6.378 6.355-6.356 1.724 1.724-8.079 8.057z"></path>
</symbol>
<symbol id="icon-close-menu-40px" viewBox="0 0 32 32">
<path d="M16.125 17.145l-4.285 4.285-1.279-1.279 4.285-4.285-4.293-4.293 1.279-1.279 4.293 4.293 4.272-4.272 1.279 1.279-4.272 4.272 4.268 4.268-1.279 1.279-4.268-4.268z"></path>
</symbol>
<symbol id="icon-burger" viewBox="0 0 44 32">
<path d="M1.846 0.001h40.615c1.020 0 1.846 0.827 1.846 1.846s-0.827 1.846-1.846 1.846h-40.615c-1.020 0-1.846-0.827-1.846-1.846s0.827-1.846 1.846-1.846z"></path>
<path d="M1.846 13.538h40.615c1.020 0 1.846 0.827 1.846 1.846s-0.827 1.846-1.846 1.846h-40.615c-1.020 0-1.846-0.827-1.846-1.846s0.827-1.846 1.846-1.846z"></path>
<path d="M1.846 28.307h40.615c1.020 0 1.846 0.827 1.846 1.846s-0.827 1.846-1.846 1.846h-40.615c-1.020 0-1.846-0.827-1.846-1.846s0.827-1.846 1.846-1.846z"></path>
</symbol>
<symbol id="icon-call" viewBox="0 0 32 32">
<path d="M8.72 6.667c0.080 1.187 0.28 2.347 0.6 3.453l-1.6 1.6c-0.547-1.6-0.893-3.293-1.013-5.053h2.013zM21.867 22.693c1.133 0.32 2.293 0.52 3.467 0.6v1.987c-1.76-0.12-3.453-0.467-5.067-1l1.6-1.587zM10 4h-4.667c-0.733 0-1.333 0.6-1.333 1.333 0 12.52 10.147 22.667 22.667 22.667 0.733 0 1.333-0.6 1.333-1.333v-4.653c0-0.733-0.6-1.333-1.333-1.333-1.653 0-3.267-0.267-4.76-0.76-0.132-0.048-0.273-0.071-0.413-0.067-0.347 0-0.68 0.133-0.947 0.387l-2.933 2.933c-3.779-1.933-6.854-5.007-8.787-8.787l2.933-2.933c0.373-0.373 0.48-0.893 0.333-1.36-0.506-1.536-0.762-3.143-0.76-4.76 0-0.733-0.6-1.333-1.333-1.333z"></path>
</symbol>
<symbol id="icon-location" viewBox="0 0 32 32">
<path stroke-linejoin="round" stroke-linecap="round" stroke-miterlimit="4" stroke-width="2.6667" d="M16.747 27.76c-0.218 0.155-0.479 0.239-0.747 0.239s-0.529-0.084-0.747-0.239c-6.439-4.589-13.272-14.029-6.364-20.851 1.896-1.867 4.45-2.912 7.111-2.909 2.667 0 5.225 1.047 7.111 2.908 6.908 6.821 0.075 16.26-6.364 20.852z"></path>
<path stroke-linejoin="round" stroke-linecap="round" stroke-miterlimit="4" stroke-width="2" d="M16 16c0.707 0 1.385-0.281 1.886-0.781s0.781-1.178 0.781-1.886c0-0.707-0.281-1.386-0.781-1.886s-1.178-0.781-1.886-0.781c-0.707 0-1.385 0.281-1.886 0.781s-0.781 1.178-0.781 1.886c0 0.707 0.281 1.385 0.781 1.886s1.178 0.781 1.886 0.781z"></path>
</symbol>
<symbol id="icon-person" viewBox="0 0 32 32">
<path d="M16 7.867c0.368 0 0.732 0.072 1.071 0.213s0.648 0.347 0.908 0.607 0.466 0.569 0.607 0.908c0.141 0.34 0.213 0.704 0.213 1.072s-0.072 0.732-0.213 1.072c-0.141 0.34-0.347 0.648-0.607 0.908s-0.569 0.466-0.908 0.607c-0.34 0.141-0.704 0.213-1.071 0.213-0.743 0-1.455-0.295-1.98-0.82s-0.82-1.237-0.82-1.98 0.295-1.455 0.82-1.98c0.525-0.525 1.237-0.82 1.98-0.82zM16 19.867c3.96 0 8.133 1.947 8.133 2.8v1.467h-16.267v-1.467c0-0.853 4.173-2.8 8.133-2.8zM16 5.333c-2.947 0-5.333 2.387-5.333 5.333s2.387 5.333 5.333 5.333c2.947 0 5.333-2.387 5.333-5.333s-2.387-5.333-5.333-5.333zM16 17.333c-3.56 0-10.667 1.787-10.667 5.333v4h21.333v-4c0-3.547-7.107-5.333-10.667-5.333z"></path>
</symbol>
<symbol id="icon-telegram" viewBox="0 0 33 32">
<path stroke-linejoin="round" stroke-linecap="round" stroke-miterlimit="4" stroke-width="2" d="M16.647 20.544l4.323 4.915c1.6 1.82 2.401 2.731 3.24 2.508 0.837-0.221 1.125-1.419 1.7-3.815l3.187-13.291c0.887-3.691 1.329-5.535 0.345-6.445s-2.689-0.233-6.1 1.12l-15.821 6.284c-2.728 1.084-4.092 1.625-4.179 2.556-0.010 0.095-0.010 0.191 0 0.285 0.084 0.932 1.445 1.477 4.171 2.569 1.233 0.495 1.851 0.743 2.293 1.216 0.050 0.053 0.098 0.108 0.144 0.165 0.408 0.507 0.581 1.173 0.929 2.501l0.652 2.489c0.337 1.293 0.507 1.941 0.951 2.029s0.829-0.448 1.601-1.521l2.564-3.567zM16.647 20.544l-0.423-0.44c-0.483-0.504-0.724-0.755-0.724-1.067s0.24-0.564 0.724-1.067l4.764-4.965"></path>
</symbol>
<symbol id="icon-youtube" viewBox="0 0 33 32">
<path d="M30.667 15.913c0-0.069 0-0.147-0.003-0.238-0.003-0.253-0.009-0.537-0.016-0.841-0.025-0.872-0.069-1.741-0.137-2.559-0.094-1.128-0.231-2.069-0.419-2.775-0.198-0.737-0.586-1.409-1.125-1.949s-1.211-0.929-1.947-1.129c-0.884-0.237-2.616-0.384-5.053-0.475-1.159-0.044-2.4-0.072-3.641-0.088-0.434-0.006-0.837-0.009-1.2-0.013h-0.919c-0.363 0.003-0.766 0.006-1.2 0.013-1.241 0.016-2.481 0.044-3.641 0.088-2.438 0.094-4.172 0.241-5.053 0.475-0.737 0.199-1.409 0.588-1.948 1.128s-0.927 1.213-1.124 1.95c-0.191 0.706-0.325 1.647-0.419 2.775-0.069 0.819-0.112 1.688-0.138 2.559-0.009 0.303-0.013 0.587-0.016 0.841 0 0.091-0.003 0.169-0.003 0.238v0.175c0 0.069 0 0.147 0.003 0.237 0.003 0.253 0.009 0.538 0.016 0.841 0.025 0.872 0.069 1.741 0.138 2.559 0.094 1.128 0.231 2.069 0.419 2.775 0.4 1.497 1.575 2.678 3.072 3.078 0.881 0.237 2.616 0.384 5.053 0.475 1.159 0.044 2.4 0.072 3.641 0.088 0.434 0.006 0.837 0.009 1.2 0.012h0.919c0.363-0.003 0.766-0.006 1.2-0.012 1.241-0.016 2.481-0.044 3.641-0.088 2.437-0.094 4.172-0.241 5.053-0.475 1.497-0.4 2.672-1.578 3.072-3.078 0.191-0.706 0.325-1.647 0.419-2.775 0.069-0.819 0.113-1.687 0.137-2.559 0.009-0.303 0.013-0.587 0.016-0.841 0-0.091 0.003-0.169 0.003-0.237v-0.175zM28.417 16.075c0 0.066 0 0.138-0.003 0.222-0.003 0.244-0.009 0.512-0.016 0.803-0.022 0.831-0.066 1.663-0.131 2.434-0.084 1.006-0.203 1.831-0.35 2.384-0.194 0.722-0.763 1.294-1.481 1.484-0.656 0.175-2.309 0.316-4.556 0.4-1.138 0.044-2.363 0.072-3.584 0.088-0.428 0.006-0.825 0.009-1.181 0.009h-0.894l-1.181-0.009c-1.222-0.016-2.444-0.044-3.584-0.088-2.247-0.087-3.903-0.225-4.556-0.4-0.719-0.194-1.287-0.762-1.481-1.484-0.147-0.553-0.266-1.378-0.35-2.384-0.066-0.772-0.106-1.603-0.131-2.434-0.009-0.291-0.013-0.563-0.016-0.803 0-0.084-0.003-0.159-0.003-0.222v-0.15c0-0.066 0-0.137 0.003-0.222 0.003-0.244 0.009-0.512 0.016-0.803 0.022-0.831 0.066-1.662 0.131-2.434 0.084-1.006 0.203-1.831 0.35-2.384 0.194-0.722 0.763-1.294 1.481-1.484 0.656-0.175 2.309-0.316 4.556-0.4 1.137-0.044 2.362-0.072 3.584-0.088 0.428-0.006 0.825-0.009 1.181-0.009h0.894l1.181 0.009c1.222 0.016 2.444 0.044 3.584 0.088 2.247 0.088 3.903 0.225 4.556 0.4 0.719 0.194 1.287 0.762 1.481 1.484 0.147 0.553 0.266 1.378 0.35 2.384 0.066 0.772 0.106 1.603 0.131 2.434 0.009 0.291 0.013 0.563 0.016 0.803 0 0.084 0.003 0.159 0.003 0.222v0.15zM13.885 20.188l7.25-4.219-7.25-4.156v8.375z"></path>
</symbol>
<symbol id="icon-instagram" viewBox="0 0 33 32">
<path stroke-linejoin="round" stroke-linecap="round" stroke-miterlimit="4" stroke-width="2" d="M16.667 21.333c1.415 0 2.771-0.562 3.771-1.562s1.562-2.357 1.562-3.771-0.562-2.771-1.562-3.771c-1-1-2.357-1.562-3.771-1.562s-2.771 0.562-3.771 1.562c-1 1-1.562 2.357-1.562 3.771s0.562 2.771 1.562 3.771c1 1 2.357 1.562 3.771 1.562z"></path>
<path stroke-linejoin="miter" stroke-linecap="butt" stroke-miterlimit="4" stroke-width="2" d="M4.667 21.333v-10.667c0-1.768 0.702-3.464 1.953-4.714s2.946-1.953 4.714-1.953h10.667c1.768 0 3.464 0.702 4.714 1.953s1.953 2.946 1.953 4.714v10.667c0 1.768-0.702 3.464-1.953 4.714s-2.946 1.953-4.714 1.953h-10.667c-1.768 0-3.464-0.702-4.714-1.953s-1.953-2.946-1.953-4.714z"></path>
<path stroke-linejoin="round" stroke-linecap="round" stroke-miterlimit="4" stroke-width="2" d="M24 8.68l0.013-0.015"></path>
</symbol>
<symbol id="icon-plus" viewBox="0 0 32 32">
<path d="M13.965 18.048h-13.816v-4.123h13.816v-13.841h4.123v13.841h13.775v4.123h-13.775v13.762h-4.123v-13.762z"></path>
</symbol>
<symbol id="icon-bird-right-56px" viewBox="0 0 32 32">
<path d="M17.21 15.978l-6.378-6.378 1.701-1.724 8.101 8.101-8.101 8.101-1.701-1.724 6.378-6.378z"></path>
</symbol>
<symbol id="icon-arrow-expand" viewBox="0 0 32 32">
<path d="M8.207 24.212l-1.812-1.812 13.436-13.462h-12.204v-2.577h16.585v16.577h-2.585v-12.163l-13.42 13.436z"></path>
</symbol>
<symbol id="icon-facebook" viewBox="0 0 33 32">
<path d="M14.651 5.051c1.313-1.313 3.093-2.050 4.949-2.051h3.6c0.265 0 0.52 0.105 0.707 0.293s0.293 0.442 0.293 0.707v4.8c0 0.265-0.105 0.52-0.293 0.707s-0.442 0.293-0.707 0.293h-3.6c-0.026 0-0.052 0.005-0.077 0.015s-0.046 0.025-0.065 0.043c-0.019 0.019-0.033 0.041-0.043 0.065s-0.015 0.050-0.015 0.077v2.6h3.8c0.152-0 0.302 0.034 0.439 0.101s0.256 0.164 0.35 0.283 0.159 0.259 0.19 0.408c0.032 0.149 0.029 0.303-0.008 0.45l-1.2 4.8c-0.054 0.216-0.179 0.409-0.355 0.546s-0.393 0.212-0.616 0.212h-2.6v8.6c0 0.265-0.105 0.52-0.293 0.707s-0.442 0.293-0.707 0.293h-4.8c-0.265 0-0.52-0.105-0.707-0.293s-0.293-0.442-0.293-0.707v-8.6h-2.6c-0.265 0-0.52-0.105-0.707-0.293s-0.293-0.442-0.293-0.707v-4.8c0-0.131 0.026-0.261 0.076-0.383s0.124-0.232 0.217-0.324c0.093-0.093 0.203-0.167 0.324-0.217s0.251-0.076 0.383-0.076h2.6v-2.6c0-1.856 0.738-3.637 2.051-4.949zM19.6 5c-1.326 0-2.598 0.527-3.536 1.464s-1.464 2.209-1.464 3.536v3.6c0 0.265-0.105 0.52-0.293 0.707s-0.442 0.293-0.707 0.293h-2.6v2.8h2.6c0.265 0 0.52 0.105 0.707 0.293s0.293 0.442 0.293 0.707v8.6h2.8v-8.6c0-0.265 0.105-0.52 0.293-0.707s0.442-0.293 0.707-0.293h2.819l0.7-2.8h-3.519c-0.265 0-0.52-0.105-0.707-0.293s-0.293-0.442-0.293-0.707v-3.6c0-0.583 0.232-1.143 0.644-1.556s0.972-0.644 1.556-0.644h2.6v-2.8h-2.6z"></path>
</symbol>
<symbol id="icon-facebook2" viewBox="0 0 32 32">
<path fill="#3d5a98" style="fill: var(--color1, #3d5a98)" d="M29.163 1.208h-26.323c-0.902 0-1.633 0.731-1.633 1.632v26.323c0 0.902 0.731 1.633 1.633 1.633h26.323c0.902 0 1.633-0.731 1.633-1.633v-26.323c0-0.902-0.731-1.633-1.633-1.633z"></path>
<path fill="#fff" style="fill: var(--color2, #fff)" d="M21.62 30.793v-11.458h3.845l0.575-4.465h-4.42v-2.85c0-1.292 0.36-2.175 2.212-2.175h2.365v-4c-1.145-0.119-2.296-0.176-3.447-0.17-3.405 0-5.75 2.075-5.75 5.902v3.293h-3.845v4.465h3.845v11.458h4.62z"></path>
</symbol>
<symbol id="icon-flat-color-icons_google" viewBox="0 0 32 32">
<path fill="#ffc107" style="fill: var(--color1, #ffc107)" d="M29.074 13.389h-1.074v-0.055h-12v5.333h7.535c-1.099 3.105-4.053 5.333-7.535 5.333-4.418 0-8-3.582-8-8s3.582-8 8-8c2.039 0 3.895 0.769 5.307 2.026l3.771-3.771c-2.381-2.219-5.567-3.588-9.079-3.588-7.363 0-13.333 5.97-13.333 13.333s5.97 13.333 13.333 13.333c7.363 0 13.333-5.97 13.333-13.333 0-0.894-0.092-1.767-0.259-2.611z"></path>
<path fill="#ff3d00" style="fill: var(--color2, #ff3d00)" d="M4.204 9.794l4.381 3.213c1.185-2.935 4.056-5.007 7.415-5.007 2.039 0 3.895 0.769 5.307 2.026l3.771-3.771c-2.381-2.219-5.567-3.588-9.079-3.588-5.121 0-9.563 2.891-11.796 7.127z"></path>
<path fill="#4caf50" style="fill: var(--color3, #4caf50)" d="M16 29.333c3.444 0 6.573-1.318 8.939-3.461l-4.127-3.492c-1.383 1.053-3.074 1.622-4.813 1.62-3.468 0-6.413-2.211-7.522-5.297l-4.348 3.35c2.207 4.318 6.688 7.281 11.87 7.281z"></path>
<path fill="#1976d2" style="fill: var(--color4, #1976d2)" d="M29.074 13.389h-1.074v-0.055h-12v5.333h7.535c-0.526 1.478-1.473 2.769-2.725 3.714l0.002-0.001 4.127 3.492c-0.292 0.265 4.394-3.205 4.394-9.871 0-0.894-0.092-1.767-0.259-2.611z"></path>
</symbol>
<symbol id="icon-prime_microsoft" viewBox="0 0 32 32">
<path fill="#000" style="fill: var(--color5, #000)" d="M1 1.333h13.75v13.75h-13.75v-13.75z"></path>
<path fill="#f00" style="fill: var(--color6, #f00)" d="M1 1.333h13.75v13.75h-13.75v-13.75z"></path>
<path fill="#000" style="fill: var(--color5, #000)" d="M16.583 1.333h13.75v13.75h-13.75v-13.75z"></path>
<path fill="#00e138" style="fill: var(--color7, #00e138)" d="M16.583 1.333h13.75v13.75h-13.75v-13.75z"></path>
<path fill="#000" style="fill: var(--color5, #000)" d="M1 16.917h13.75v13.75h-13.75v-13.75z"></path>
<path fill="#04a9e5" style="fill: var(--color8, #04a9e5)" d="M1 16.917h13.75v13.75h-13.75v-13.75z"></path>
<path fill="#000" style="fill: var(--color5, #000)" d="M16.583 16.917h13.75v13.75h-13.75v-13.75z"></path>
<path fill="#ffe500" style="fill: var(--color9, #ffe500)" d="M16.583 16.917h13.75v13.75h-13.75v-13.75z"></path>
</symbol>
<symbol id="icon-filter" viewBox="0 0 32 32">
<path d="M13.567 26.097v-9.114l-9.241-11.796h23.915l-9.235 11.796v9.114h-5.439zM16.284 16.601l7.135-9.048h-14.264l7.129 9.048z"></path>
</symbol>
</defs>
</svg>
